<?xml version="1.0" standalone="no"?>
<!DOCTYPE svg PUBLIC "-//W3C//DTD SVG 20010904//EN"
 "http://www.w3.org/TR/2001/REC-SVG-20010904/DTD/svg10.dtd">
<svg version="1.0" xmlns="http://www.w3.org/2000/svg"
 width="1232.000000pt" height="1232.000000pt" viewBox="0 0 1232.000000 1232.000000"
 preserveAspectRatio="xMidYMid meet">
<metadata>
Created by potrace 1.11, written by Peter Selinger 2001-2013
</metadata>
<g transform="translate(0.000000,1232.000000) scale(0.100000,-0.100000)"
fill="#000000" stroke="none">
<path d="M128 10959 c-19 -11 -24 -44 -9 -53 5 -3 23 -34 41 -68 18 -35 38
-70 44 -78 7 -8 18 -26 25 -40 15 -31 35 -67 86 -154 22 -38 53 -91 68 -120
16 -28 36 -62 45 -76 9 -14 29 -50 45 -80 16 -30 36 -62 43 -71 8 -8 14 -19
14 -23 0 -5 22 -45 49 -90 27 -44 58 -97 68 -116 11 -19 37 -66 59 -104 21
-37 48 -85 60 -105 20 -36 46 -80 83 -143 10 -18 40 -71 67 -118 26 -47 51
-87 54 -90 3 -3 13 -21 23 -40 9 -19 27 -52 40 -72 12 -21 37 -66 56 -100 18
-35 40 -70 47 -79 8 -8 14 -18 14 -21 0 -3 32 -61 71 -129 40 -68 83 -144 97
-169 23 -42 174 -302 221 -380 11 -19 27 -48 36 -65 9 -16 27 -48 40 -70 14
-22 29 -51 35 -65 6 -13 14 -27 18 -30 4 -3 15 -21 26 -40 49 -91 80 -145 85
-150 3 -3 21 -34 40 -70 19 -36 37 -67 40 -70 3 -3 14 -21 23 -40 10 -19 31
-57 48 -85 16 -27 49 -84 72 -125 23 -41 45 -76 50 -78 4 -2 8 -9 8 -15 0 -7
16 -38 34 -69 35 -57 59 -99 111 -193 15 -27 33 -57 39 -65 7 -8 17 -26 24
-40 7 -14 16 -32 22 -40 10 -15 59 -102 113 -200 16 -30 35 -62 41 -70 6 -8
22 -35 35 -60 13 -25 29 -52 36 -60 6 -8 24 -40 39 -70 16 -30 34 -62 40 -70
7 -8 18 -29 25 -46 12 -30 10 -37 -25 -100 -56 -103 -63 -116 -85 -149 -10
-16 -26 -43 -35 -60 -8 -16 -26 -48 -39 -70 -13 -22 -31 -55 -41 -72 -9 -18
-20 -33 -25 -33 -5 0 -9 -7 -9 -15 0 -9 -8 -28 -18 -43 -23 -34 -36 -56 -67
-112 -14 -25 -39 -67 -55 -95 -17 -27 -37 -63 -45 -80 -8 -16 -28 -50 -45 -75
-16 -25 -30 -49 -30 -54 0 -5 -6 -17 -14 -25 -7 -9 -27 -41 -43 -71 -26 -48
-118 -208 -143 -250 -38 -62 -87 -149 -96 -170 -6 -14 -18 -32 -25 -40 -8 -8
-25 -37 -39 -63 -14 -27 -30 -56 -35 -65 -6 -10 -30 -51 -53 -92 -24 -41 -47
-82 -52 -90 -16 -27 -95 -164 -103 -180 -4 -8 -16 -28 -27 -45 -10 -16 -25
-41 -33 -55 -18 -33 -47 -83 -84 -145 -16 -27 -33 -57 -37 -65 -4 -8 -17 -32
-29 -52 -74 -125 -127 -220 -127 -228 0 -6 -4 -10 -9 -10 -5 0 -15 -16 -22
-35 -7 -19 -16 -35 -20 -35 -4 0 -11 -9 -14 -21 -4 -11 -19 -40 -35 -62 -15
-23 -40 -67 -56 -97 -16 -30 -42 -74 -57 -98 -15 -24 -33 -55 -40 -70 -6 -15
-15 -31 -20 -37 -10 -13 -70 -114 -106 -180 -68 -122 -85 -152 -108 -185 -12
-19 -23 -38 -23 -41 0 -4 -25 -49 -56 -100 -31 -52 -69 -117 -85 -146 -45 -83
-54 -98 -60 -103 -6 -5 -21 -32 -56 -100 -10 -19 -21 -37 -24 -40 -4 -3 -19
-27 -33 -55 -15 -27 -38 -68 -52 -90 -13 -22 -30 -51 -36 -65 -7 -14 -17 -32
-24 -40 -14 -19 -61 -100 -90 -159 l-22 -45 23 -17 c21 -17 82 -18 1081 -18
583 0 1064 3 1069 7 12 8 70 98 149 232 31 52 61 102 66 110 5 8 26 44 47 80
21 36 42 73 48 82 37 62 206 351 235 403 9 17 38 65 64 108 25 43 46 80 46 82
0 2 27 49 60 104 33 56 60 103 60 106 0 3 15 28 33 57 32 50 78 131 118 206 9
18 22 38 27 45 5 7 23 37 39 67 30 55 54 97 95 167 12 21 29 53 39 71 10 18
22 38 27 45 5 7 23 37 39 67 74 135 98 177 120 212 13 21 23 40 23 43 0 2 15
28 34 57 18 29 41 71 51 93 11 22 22 42 25 45 4 3 30 48 60 100 29 52 62 111
73 130 11 19 32 58 47 85 15 28 48 85 74 128 25 43 46 79 46 81 0 3 19 37 43
78 24 40 58 100 76 133 104 190 153 265 174 266 12 0 852 1 1866 1 1202 1
1845 -3 1850 -9 40 -61 147 -219 151 -223 3 -3 11 -16 19 -30 8 -14 30 -52 49
-85 19 -33 48 -85 65 -115 17 -30 33 -57 36 -60 3 -3 16 -25 29 -50 13 -25 28
-54 35 -65 7 -11 43 -74 80 -140 37 -66 72 -127 77 -135 39 -68 82 -142 100
-175 47 -86 125 -220 130 -225 3 -3 20 -34 39 -70 18 -36 38 -71 44 -79 12
-14 32 -47 43 -71 10 -20 151 -266 175 -305 10 -16 23 -40 28 -52 6 -12 23
-41 38 -65 35 -54 58 -96 73 -128 6 -13 14 -27 18 -30 4 -3 15 -21 26 -40 33
-62 68 -125 76 -135 4 -5 18 -30 32 -55 14 -25 40 -71 59 -103 100 -170 174
-299 203 -351 15 -28 34 -58 42 -67 8 -8 14 -19 14 -23 0 -4 16 -32 35 -62 19
-30 35 -57 35 -61 0 -3 10 -20 23 -37 12 -17 33 -51 46 -76 13 -25 37 -64 53
-88 15 -24 28 -45 28 -48 0 -4 47 -78 63 -99 4 -5 25 -38 47 -72 l39 -63 1058
0 1058 0 25 26 c24 26 24 26 6 58 -10 17 -34 60 -54 96 -20 36 -49 88 -65 115
-16 28 -38 64 -47 80 -9 17 -59 102 -110 190 -90 156 -221 385 -269 468 -34
61 -102 178 -120 207 -8 14 -28 50 -44 80 -16 30 -35 62 -42 70 -8 8 -18 26
-24 40 -6 14 -17 34 -23 45 -19 28 -51 83 -80 135 -14 25 -35 62 -47 82 -11
21 -31 55 -42 75 -12 21 -33 58 -47 83 -14 25 -29 47 -34 48 -4 2 -8 8 -8 13
0 9 -156 286 -207 368 -13 20 -28 47 -34 61 -5 13 -13 27 -17 30 -4 3 -15 21
-25 40 -18 36 -48 90 -85 150 -12 19 -33 58 -47 85 -15 28 -33 57 -40 65 -8 8
-19 26 -25 40 -6 14 -21 43 -35 65 -13 22 -28 49 -33 60 -6 11 -34 61 -64 111
-30 50 -58 97 -61 105 -4 8 -20 37 -37 64 -16 28 -41 74 -57 103 -15 28 -31
52 -35 52 -4 0 -8 6 -8 14 0 8 -6 21 -12 28 -7 7 -21 29 -31 48 -9 19 -28 53
-42 75 -13 22 -31 54 -39 70 -9 17 -20 37 -26 45 -13 21 -67 113 -103 180 -16
30 -34 61 -40 68 -14 18 -44 72 -57 105 -7 15 -16 27 -21 27 -5 0 -9 5 -9 12
0 10 -87 167 -100 178 -3 3 -13 21 -23 40 -9 19 -28 53 -41 75 -13 22 -36 63
-52 91 l-27 52 38 68 c43 77 68 120 102 179 13 22 30 54 38 70 9 17 27 48 41
70 13 22 31 54 40 70 8 17 24 46 36 65 39 65 79 135 91 160 6 14 14 27 18 30
3 3 13 19 21 35 37 72 57 107 66 118 5 7 23 37 39 67 17 30 40 72 52 93 11 20
30 53 41 72 22 39 52 90 87 150 12 22 29 51 36 65 10 21 75 137 107 190 19 33
135 237 147 259 16 28 80 140 94 161 5 8 19 33 30 55 11 22 29 56 41 75 21 35
32 53 99 171 20 35 46 82 59 104 13 22 34 60 48 85 13 25 28 50 32 55 4 6 22
37 41 70 18 33 43 78 56 100 12 22 31 56 40 75 10 19 21 37 26 38 4 2 7 7 7
12 0 6 64 121 101 180 5 8 17 31 27 50 9 19 20 37 23 40 3 3 21 34 40 70 19
36 37 67 40 70 3 3 23 37 45 75 21 39 47 84 56 100 10 17 27 48 38 70 20 39
29 55 61 105 9 14 33 57 54 95 21 39 45 81 52 95 8 14 25 43 39 65 14 22 31
54 40 70 8 17 26 48 39 70 14 22 28 47 32 55 7 16 86 154 103 180 5 8 18 31
28 50 10 19 29 53 42 75 13 22 34 59 46 82 l23 42 -29 21 c-28 20 -38 20
-1072 20 l-1044 0 -25 -27 c-13 -16 -45 -55 -72 -88 -26 -33 -59 -74 -73 -92
-14 -17 -32 -42 -38 -55 -7 -12 -26 -45 -42 -73 -16 -27 -36 -63 -44 -80 -8
-16 -19 -37 -26 -45 -6 -8 -28 -46 -48 -83 -52 -96 -71 -130 -132 -233 -29
-50 -57 -100 -60 -110 -4 -11 -12 -26 -19 -34 -7 -8 -26 -41 -44 -72 -72 -132
-96 -175 -118 -210 -13 -21 -23 -40 -23 -42 0 -3 -38 -71 -85 -151 -47 -81
-85 -148 -85 -150 0 -2 -20 -38 -45 -79 -25 -42 -45 -79 -45 -82 0 -3 -8 -18
-18 -32 -19 -27 -66 -110 -106 -187 -12 -22 -24 -42 -27 -45 -3 -3 -21 -32
-39 -65 -19 -33 -44 -78 -57 -100 -12 -22 -31 -56 -40 -75 -10 -19 -20 -37
-23 -40 -6 -5 -38 -60 -80 -135 -12 -22 -44 -77 -71 -121 -27 -45 -49 -84 -49
-87 0 -3 -13 -26 -30 -50 -16 -24 -34 -55 -40 -68 -6 -13 -22 -42 -35 -64 -14
-22 -30 -51 -37 -65 -7 -14 -18 -31 -25 -38 -7 -7 -13 -17 -13 -22 0 -5 -13
-29 -30 -53 -17 -25 -30 -47 -30 -51 0 -3 -19 -36 -42 -73 -51 -80 -56 -89
-105 -172 -55 -91 -54 -90 -101 -158 -39 -58 -46 -63 -80 -64 -20 0 -856 0
-1856 -1 l-1819 0 -18 23 c-10 13 -19 28 -19 33 0 4 -12 27 -28 50 -15 22 -38
62 -52 89 -14 26 -28 47 -32 47 -5 0 -8 4 -8 9 0 8 -77 145 -112 199 -10 15
-22 36 -28 47 -5 11 -26 47 -45 80 -20 33 -41 70 -47 83 -6 12 -15 22 -20 22
-4 0 -8 5 -8 11 0 6 -24 52 -52 101 -29 49 -64 108 -77 131 -13 23 -27 44 -30
47 -3 3 -13 19 -21 35 -8 17 -26 48 -40 70 -38 62 -44 71 -62 104 -22 41 -148
255 -170 289 -10 15 -24 41 -33 57 -9 17 -21 39 -28 50 -11 17 -32 53 -84 140
-7 11 -15 27 -19 35 -4 8 -19 33 -33 55 -14 22 -32 54 -41 70 -9 17 -46 79
-81 138 -35 60 -70 120 -78 135 -8 15 -18 29 -23 30 -4 2 -8 8 -8 14 0 5 -37
71 -81 146 -45 76 -90 151 -100 168 -9 17 -36 62 -58 99 -23 37 -41 69 -41 71
0 3 -12 23 -27 47 -15 23 -38 62 -52 87 -13 25 -36 63 -50 85 -14 22 -31 49
-37 60 -6 11 -23 43 -39 70 -15 28 -33 56 -38 64 -15 17 -34 50 -47 80 -6 13
-24 44 -40 68 -17 24 -30 47 -30 50 0 9 -91 155 -106 171 -16 16 -2129 17
-2156 1z"/>
</g>
</svg>
